<svg width="60" height="60" viewBox="0 0 60 60" fill="none" xmlns="http://www.w3.org/2000/svg">
<path d="M22.3145 11.8003L23.2935 15.7162L24.2726 20.4945L26.72 26.7646L22.9906 34.5031" stroke="#8C9397"/>
<path d="M37.8848 11.8984L37.6575 13.7582L37.168 15.7162L36.1889 20.4945L33.7414 26.7646L37.4709 34.5031" stroke="#8C9397"/>
<path d="M16.6152 48.0677L17.9106 33.2983L20.9164 26.8204L20.2168 16.3922" stroke="#8C9397"/>
<path d="M43.6426 48.0677L42.3472 33.2983L39.3414 26.8205L39.8429 16.229" stroke="#8C9397"/>
<path d="M22.4441 11.6373L30.1101 5.18787L37.7562 11.6373L41.6791 20.239L44.2493 34.4431L43.6778 49.2533L38.0396 53.8988L35.4984 54.8121H24.8573L22.197 53.8988L16.5191 49.2533L15.7651 34.4431L18.4292 20.239L22.4441 11.6373Z" stroke="#8C9397"/>
<path d="M16.3605 48.1812H43.4M15.751 34.3929L17.8197 33.4803L22.9913 34.3929L29.9335 33.4803L37.0798 34.3929L42.2202 33.4803L44.1141 34.3929M22.3955 11.8505H37.5631" stroke="#8C9397"/>
<path d="M30.1435 5.31689L33.9125 11.7894L36.888 15.4637L39.8659 20.149L42.7351 26.3007L42.1688 33.5298L40.0247 48.2209L37.2056 34.4033M37.2056 34.4033L39.2422 26.899L35.8953 20.4666L32.5601 15.4637L29.9792 11.7894L27.5967 15.1461L29.9792 20.4666L33.5131 26.899L30.2573 33.5298L33.672 48.2209L37.2056 34.4033Z" stroke="#8C9397"/>
<path d="M29.9339 5.29596L26.2311 11.7894L23.2556 15.4638L20.2776 20.149L17.3628 26.2728L17.9747 33.5299L20.1188 48.221L22.9379 34.4034M26.6304 48.4823L22.9379 34.4034L20.7541 26.899L24.2482 20.4667L27.5835 15.4638L30.1644 11.7894L32.5469 15.1461L30.1644 20.4667L26.6304 26.899L29.8863 33.5299L26.4716 48.221" stroke="#8C9397"/>
<path d="M30.1079 5.49359V11.4321" stroke="#8C9397"/>
<path d="M16.8604 48.4185C16.8604 48.4185 24.6365 53.8219 30.0192 53.8989C35.5877 53.9784 43.3392 48.4185 43.3392 48.4185" stroke="#8C9397"/>
<path d="M21.8711 48.3451C21.8711 48.3451 26.6408 53.8219 29.8543 53.8988C33.1787 53.9784 37.9333 48.266 37.9333 48.266" stroke="#8C9397"/>
<path d="M26.417 47.9057L23.084 49.5606V54.0592L29.9366 53.8961L36.9296 54.0592V49.5606L33.5093 48.1713" stroke="#8C9397"/>
</svg>
