<svg width="60" height="60" viewBox="0 0 60 60" fill="none" xmlns="http://www.w3.org/2000/svg">
<path d="M9.25449 9.07887L16.006 6.75874L30.7038 5L45.19 7.03943L51.3788 9.43143L53.4874 15.6189L55.2461 30.1064L52.9247 44.6632L50.8161 50.852L44.6978 52.8914L29.6488 55L15.1612 52.6799L8.83277 50.4994L6.93436 44.1709L4.75391 29.6847L7.14454 14.9165L9.25449 9.07887Z" stroke="#383738" stroke-width="1.5" stroke-miterlimit="10" stroke-linecap="round" stroke-linejoin="round"/>
<path d="M18.3262 12.736L30.7038 5L42.3071 13.2282L30.316 19.4171L18.3262 12.736Z" stroke="#383738" stroke-width="1.5" stroke-miterlimit="10" stroke-linecap="round" stroke-linejoin="round"/>
<path d="M38.6499 21.6669L42.307 13.2285L51.3787 9.43164L47.369 18.0816L38.6499 21.6669Z" stroke="#383738" stroke-width="1.5" stroke-miterlimit="10" stroke-linecap="round" stroke-linejoin="round"/>
<path d="M40.7598 30.3873L38.6499 21.6668L47.369 18.0815L40.7598 30.3873Z" stroke="#383738" stroke-width="1.5" stroke-miterlimit="10" stroke-linecap="round" stroke-linejoin="round"/>
<path d="M53.4871 15.6191L47.3688 18.0816L55.2458 30.1067L47.0175 42.2728L40.666 30.0009" stroke="#383738" stroke-width="1.5" stroke-miterlimit="10" stroke-linecap="round" stroke-linejoin="round"/>
<path d="M52.9245 44.6631L47.0177 42.2725L50.8159 50.8519L42.2012 46.8083L44.6976 52.8913" stroke="#383738" stroke-width="1.5" stroke-miterlimit="10" stroke-linecap="round" stroke-linejoin="round"/>
<path d="M47.0178 42.2728L38.4031 38.2983L42.2013 46.8086L29.6488 55.0002L17.8691 46.8086L30 40.5317L21.7012 38" stroke="#383738" stroke-width="1.5" stroke-miterlimit="10" stroke-linecap="round" stroke-linejoin="round"/>
<path d="M40.7598 30.3872L38.3325 38.4744" stroke="#383738" stroke-width="1.5" stroke-miterlimit="10" stroke-linecap="round" stroke-linejoin="round"/>
<path d="M38.65 38.2983L30 40.5317L42.2013 46.8086" stroke="#383738" stroke-width="1.5" stroke-miterlimit="10" stroke-linecap="round" stroke-linejoin="round"/>
<path d="M38.65 21.6669L30.316 19.4173L21.6308 21.4567L18.3262 12.7362L9.25449 9.0791L13.1571 17.6586L4.75391 29.685L12.5414 41.9026L19.4517 30.0009L21.6308 21.4567L13.1571 17.6586L7.14454 14.9167" stroke="#383738" stroke-width="1.5" stroke-miterlimit="10" stroke-linecap="round" stroke-linejoin="round"/>
<path d="M16.0059 6.75879L18.326 12.7361" stroke="#383738" stroke-width="1.5" stroke-miterlimit="10" stroke-linecap="round" stroke-linejoin="round"/>
<path d="M19.5124 29.7622L12.5412 41.9025L8.83252 50.4996L17.8689 46.8086L21.701 37.9999L19.5124 29.7622Z" stroke="#383738" stroke-width="1.5" stroke-miterlimit="10" stroke-linecap="round" stroke-linejoin="round"/>
<path d="M15.1611 52.6801L17.8691 46.8086" stroke="#383738" stroke-width="1.5" stroke-miterlimit="10" stroke-linecap="round" stroke-linejoin="round"/>
<path d="M21.701 38L12.5412 41.9026L6.93408 44.1712" stroke="#383738" stroke-width="1.5" stroke-miterlimit="10" stroke-linecap="round" stroke-linejoin="round"/>
<path d="M19.4513 30.0006L13.1567 17.6582" stroke="#383738" stroke-width="1.5" stroke-miterlimit="10" stroke-linecap="round" stroke-linejoin="round"/>
<path d="M45.19 7.03955L42.3071 13.2284" stroke="#383738" stroke-width="1.5" stroke-miterlimit="10" stroke-linecap="round" stroke-linejoin="round"/>
</svg>
